<?xml version="1.0" encoding="iso-8859-1"?>
<!DOCTYPE svg PUBLIC "-//W3C//DTD SVG 1.1//EN" "http://www.w3.org/Graphics/SVG/1.1/DTD/svg11.dtd">
<svg version="1.1" xmlns="http://www.w3.org/2000/svg" xmlns:xlink="http://www.w3.org/1999/xlink">
  <symbol id="double_up" viewBox="-50 -50 400 400">
    <g>
      <path d="M17.128,167.872c1.903,1.902,4.093,2.854,6.567,2.854c2.474,0,4.664-0.952,6.567-2.854L142.466,55.666l112.208,112.206
        c1.902,1.902,4.093,2.854,6.563,2.854c2.478,0,4.668-0.952,6.57-2.854l14.274-14.277c1.902-1.902,2.847-4.093,2.847-6.563
        c0-2.475-0.951-4.665-2.847-6.567L149.028,7.419c-1.901-1.906-4.088-2.853-6.562-2.853s-4.665,0.95-6.567,2.853L2.856,140.464
        C0.95,142.367,0,144.554,0,147.034c0,2.468,0.953,4.658,2.856,6.561L17.128,167.872z"/>
      <path d="M149.028,117.055c-1.901-1.906-4.088-2.856-6.562-2.856s-4.665,0.953-6.567,2.856L2.856,250.1
        C0.95,252.003,0,254.192,0,256.67c0,2.472,0.953,4.661,2.856,6.564l14.272,14.276c1.903,1.903,4.093,2.848,6.567,2.848
        c2.474,0,4.664-0.951,6.567-2.848l112.204-112.209l112.208,112.209c1.902,1.903,4.093,2.852,6.563,2.852
        c2.478,0,4.668-0.948,6.57-2.852l14.274-14.276c1.902-1.903,2.847-4.093,2.847-6.564c0-2.478-0.951-4.667-2.847-6.57
        L149.028,117.055z"/>
    </g>
  </symbol>
  <symbol id="mono_up" viewBox="-50 -50 400 400">
    <g>
      <path d="M282.082,195.285L149.028,62.24c-1.901-1.903-4.088-2.856-6.562-2.856s-4.665,0.953-6.567,2.856L2.856,195.285
        C0.95,197.191,0,199.378,0,201.853c0,2.474,0.953,4.664,2.856,6.566l14.272,14.271c1.903,1.903,4.093,2.854,6.567,2.854
        c2.474,0,4.664-0.951,6.567-2.854l112.204-112.202l112.208,112.209c1.902,1.903,4.093,2.848,6.563,2.848
        c2.478,0,4.668-0.951,6.57-2.848l14.274-14.277c1.902-1.902,2.847-4.093,2.847-6.566
        C284.929,199.378,283.984,197.188,282.082,195.285z"/>
    </g>
  </symbol>
  <symbol id="mono_down" viewBox="-50 -50 400 400">
    <g>
      <path d="M282.082,76.511l-14.274-14.273c-1.902-1.906-4.093-2.856-6.57-2.856c-2.471,0-4.661,0.95-6.563,2.856L142.466,174.441
        L30.262,62.241c-1.903-1.906-4.093-2.856-6.567-2.856c-2.475,0-4.665,0.95-6.567,2.856L2.856,76.515C0.95,78.417,0,80.607,0,83.082
        c0,2.473,0.953,4.663,2.856,6.565l133.043,133.046c1.902,1.903,4.093,2.854,6.567,2.854s4.661-0.951,6.562-2.854L282.082,89.647
        c1.902-1.903,2.847-4.093,2.847-6.565C284.929,80.607,283.984,78.417,282.082,76.511z"/>
    </g>
  </symbol>
  <symbol id="double_down" viewBox="-50 -50 400 400">
    <g>
      <path d="M135.899,167.877c1.902,1.902,4.093,2.851,6.567,2.851s4.661-0.948,6.562-2.851L282.082,34.829
        c1.902-1.903,2.847-4.093,2.847-6.567s-0.951-4.665-2.847-6.567L267.808,7.417c-1.902-1.903-4.093-2.853-6.57-2.853
        c-2.471,0-4.661,0.95-6.563,2.853L142.466,119.622L30.262,7.417c-1.903-1.903-4.093-2.853-6.567-2.853
        c-2.475,0-4.665,0.95-6.567,2.853L2.856,21.695C0.95,23.597,0,25.784,0,28.262c0,2.478,0.953,4.665,2.856,6.567L135.899,167.877z"
        />
      <path d="M267.808,117.053c-1.902-1.903-4.093-2.853-6.57-2.853c-2.471,0-4.661,0.95-6.563,2.853L142.466,229.257L30.262,117.05
        c-1.903-1.903-4.093-2.853-6.567-2.853c-2.475,0-4.665,0.95-6.567,2.853L2.856,131.327C0.95,133.23,0,135.42,0,137.893
        c0,2.474,0.953,4.665,2.856,6.57l133.043,133.046c1.902,1.903,4.093,2.854,6.567,2.854s4.661-0.951,6.562-2.854l133.054-133.046
        c1.902-1.903,2.847-4.093,2.847-6.565c0-2.474-0.951-4.661-2.847-6.567L267.808,117.053z"/>
    </g>
  </symbol>
  <symbol id="record_plus"  viewBox="-30 -30 550 550">
      <g id="g3" transform="translate(366.67198,148.67338)"><g id="g5">
      <path id="path9" d="M-77.593,145.98h-63.954v-63.956c0-2.475-0.905-4.615-2.712-6.424-1.809-1.809-3.951-2.712-6.423-2.712h-18.273c-2.474,0-4.615,0.903-6.423,2.712-1.807,1.809-2.712,3.949-2.712,6.424v63.953h-63.954c-2.474,0-4.615,0.905-6.423,2.712-1.809,1.809-2.712,3.949-2.712,6.424v18.271c0,2.475,0.903,4.617,2.712,6.424,1.809,1.809,3.946,2.713,6.423,2.713h63.954v63.954c0,2.478,0.905,4.616,2.712,6.427,1.809,1.804,3.949,2.707,6.423,2.707h18.272c2.473,0,4.615-0.903,6.423-2.707,1.807-1.811,2.712-3.949,2.712-6.427v-63.954h63.954c2.478,0,4.612-0.905,6.427-2.713,1.804-1.807,2.703-3.949,2.703-6.424v-18.271c0-2.475-0.899-4.615-2.703-6.424-1.807-1.807-3.949-2.712-6.426-2.712z"/></g></g><g id="g3142" transform="translate(27.129897,18.607808)"><g id="g3102">
      <path id="path3104" d="m396.28,130.19c-3.806-9.135-8.371-16.365-13.703-21.695l-89.08-89.088c-5.33-5.325-12.56-9.895-21.7-13.704-9.13-3.805-17.5-5.708-25.11-5.708h-182.74c-7.612,0-14.084,2.663-19.413,7.993-5.33,5.327-7.994,11.799-7.994,19.414v383.72c0,7.617,2.664,14.089,7.994,19.417,5.33,5.325,11.801,7.991,19.414,7.991h310.63c7.611,0,14.079-2.666,19.407-7.991,5.328-5.332,7.994-11.8,7.994-19.417v-255.82c0.003-7.614-1.9-15.99-5.705-25.125zm-140.46-91.364c5.517,1.903,9.418,3.999,11.704,6.28l89.366,89.366c2.279,2.286,4.374,6.186,6.276,11.706h-107.35v-107.35zm109.63,363.16h-292.36v-365.44h146.18v118.77c0,7.614,2.662,14.084,7.992,19.414,5.332,5.327,11.8,7.994,19.417,7.994h118.77v219.27z"/></g></g>
  </symbol>
  <symbol id="magnifying_glass"  viewBox="0 0 475.084 475.084">
    <g>
        <path d="M464.524,412.846l-97.929-97.925c23.6-34.068,35.406-72.047,35.406-113.917c0-27.218-5.284-53.249-15.852-78.087
          c-10.561-24.842-24.838-46.254-42.825-64.241c-17.987-17.987-39.396-32.264-64.233-42.826
          C254.246,5.285,228.217,0.003,200.999,0.003c-27.216,0-53.247,5.282-78.085,15.847C98.072,26.412,76.66,40.689,58.673,58.676
          c-17.989,17.987-32.264,39.403-42.827,64.241C5.282,147.758,0,173.786,0,201.004c0,27.216,5.282,53.238,15.846,78.083
          c10.562,24.838,24.838,46.247,42.827,64.234c17.987,17.993,39.403,32.264,64.241,42.832c24.841,10.563,50.869,15.844,78.085,15.844
          c41.879,0,79.852-11.807,113.922-35.405l97.929,97.641c6.852,7.231,15.406,10.849,25.693,10.849
          c9.897,0,18.467-3.617,25.694-10.849c7.23-7.23,10.848-15.796,10.848-25.693C475.088,428.458,471.567,419.889,464.524,412.846z
           M291.363,291.358c-25.029,25.033-55.148,37.549-90.364,37.549c-35.21,0-65.329-12.519-90.36-37.549
          c-25.031-25.029-37.546-55.144-37.546-90.36c0-35.21,12.518-65.334,37.546-90.36c25.026-25.032,55.15-37.546,90.36-37.546
          c35.212,0,65.331,12.519,90.364,37.546c25.033,25.026,37.548,55.15,37.548,90.36C328.911,236.214,316.392,266.329,291.363,291.358z
          "/>
    </g>
  </symbol>
  <symbol id="option"  viewBox="-120 -120 700 700">
    <g>

      <path d="M420.265,328.897H18.274c-4.952,0-9.235,1.813-12.851,5.428C1.807,337.938,0,342.224,0,347.172v36.548
			c0,4.949,1.807,9.23,5.424,12.848c3.619,3.613,7.902,5.424,12.851,5.424h401.991c4.948,0,9.229-1.811,12.847-5.424
			c3.614-3.617,5.421-7.898,5.421-12.848v-36.548c0-4.948-1.8-9.233-5.421-12.847C429.495,330.711,425.217,328.897,420.265,328.897z
			"/>
  		<path d="M433.112,41.968c-3.617-3.617-7.898-5.426-12.847-5.426H18.274c-4.952,0-9.235,1.809-12.851,5.426
  			C1.807,45.583,0,49.866,0,54.813V91.36c0,4.949,1.807,9.229,5.424,12.847c3.619,3.618,7.902,5.424,12.851,5.424h401.991
  			c4.948,0,9.229-1.807,12.847-5.424c3.614-3.617,5.421-7.898,5.421-12.847V54.813C438.533,49.866,436.729,45.583,433.112,41.968z"
  			/>
  		<path d="M420.265,182.72H18.274c-4.952,0-9.235,1.809-12.851,5.426C1.807,191.761,0,196.044,0,200.992v36.547
  			c0,4.948,1.807,9.236,5.424,12.847c3.619,3.614,7.902,5.428,12.851,5.428h401.991c4.948,0,9.229-1.813,12.847-5.428
  			c3.614-3.61,5.421-7.898,5.421-12.847v-36.547c0-4.948-1.807-9.231-5.421-12.847C429.495,184.528,425.217,182.72,420.265,182.72z"
  			/>

    </g>
  </symbol>
  <symbol id="close"  viewBox=" 105  105 600 600">
    <g>
      <path
        d="m420.5,218.79c-0.286-6.942-2.868-13.827-8.186-19.125-5.297-5.298-12.183-7.898-19.125-8.186-7.726-0.325-15.548,
        2.276-21.438,8.186l-65.74,65.78-65.75-65.78c-5.909-5.91-13.712-8.492-21.439-8.186-6.942,
        0.287-13.827,2.869-19.125,8.186-5.297,5.298-7.898,12.183-8.186,19.125-0.325,7.727,2.276,
        15.529,8.186,21.439l65.76,65.78-65.76,65.75c-5.91,5.909-8.492,13.713-8.186,21.438,0.287,
        6.942,2.869,13.828,8.186,19.125,5.298,5.298,12.183,7.899,19.125,8.186,7.727,
        0.325,15.53-2.275,21.439-8.186l65.76-65.76,65.771,65.771c5.91,5.909,13.713,
        8.491,21.439,8.186,6.942-0.287,13.827-2.869,19.125-8.186,5.298-5.298,
        7.898-12.183,8.186-19.125,0.325-7.727-2.276-15.529-8.186-21.439l-65.78-65.76,65.76-65.75c5.911-5.909,
        8.511-13.712,8.186-21.458z"/>
    </g>
  </symbol>
  <symbol id="three-point" viewBox="-150 -200 900 900">
    <g transform="translate(0,150)" id="g3">
      <g id="g5">
        <circle
         cx="69.544998"
         cy="306"
         r="69.544998"
         transform="translate(52,0)"
         id="circle7" />
        <circle
         cx="306"
         cy="306"
         r="69.544998"
         id="circle9" />
        <circle
         cx="542.45502"
         cy="306"
         r="69.544998"
         transform="translate(-54,0)"
         id="circle11" />
       </g>
    </g>
  </symbol>
  <symbol id = "safebox" viewBox="0 0 44 44">
  <g>
    <g>
      <g>
        <path fill-rule="evenodd" d="m5,40h34c0.552,0 1-0.447 1-1v-34c0-0.553-0.448-1-1-1h-34c-0.552,0-1,0.447-1,1v34c0,0.553 0.448,1 1,1zm1-34h32v32h-32v-32zm19,15h-3.101c-0.131-0.645-0.397-1.238-0.751-1.766 0.03-0.024 0.066-0.035 0.094-0.062l1.414-1.414c0.391-0.391 0.391-1.024 0-1.415-0.391-0.391-1.023-0.391-1.414,0l-1.414,1.415c-0.029,0.028-0.04,0.066-0.064,0.097-0.534-0.355-1.133-0.621-1.785-0.751 0.004-0.036 0.021-0.067 0.021-0.104v-2c0-0.553-0.448-1-1-1s-1,0.447-1,1v2c0,0.035 0.016,0.065 0.02,0.099-0.653,0.13-1.252,0.397-1.785,0.754-0.024-0.03-0.035-0.067-0.063-0.095l-1.414-1.415c-0.391-0.391-1.024-0.391-1.414,0-0.391,0.391-0.391,1.024 0,1.415l1.414,1.414c0.029,0.029 0.066,0.04 0.097,0.065-0.356,0.534-0.621,1.133-0.751,1.784-0.036-0.004-0.067-0.021-0.104-0.021h-2c-0.552,0-1,0.447-1,1 0,0.553 0.448,1 1,1h2c0.04,0 0.073-0.018 0.112-0.023 0.134,0.648 0.386,1.253 0.742,1.786-0.031,0.024-0.068,0.036-0.097,0.064l-1.414,1.414c-0.391,0.391-0.391,1.024 0,1.415 0.39,0.39 1.023,0.39 1.414,0l1.414-1.415c0.028-0.028 0.039-0.065 0.063-0.095 0.534,0.357 1.133,0.625 1.785,0.754-0.003,0.035-0.019,0.065-0.019,0.1v2c0,0.553 0.448,1 1,1s1-0.447 1-1v-2c0-0.037-0.017-0.068-0.021-0.103 0.652-0.13 1.251-0.395 1.785-0.751 0.024,0.031 0.036,0.068 0.064,0.097l1.414,1.415c0.391,0.39 1.023,0.39 1.414,0 0.391-0.391 0.391-1.024 0-1.415l-1.414-1.414c-0.028-0.028-0.064-0.039-0.094-0.062 0.354-0.528 0.62-1.12 0.751-1.766h3.101c0.552,0 1-0.447 1-1 0-0.554-0.448-1.001-1-1.001zm-7,2h1.816c-0.413,1.163-1.512,2-2.816,2-1.657,0-3-1.343-3-3 0-1.657 1.343-3 3-3 1.304,0 2.403,0.837 2.816,2h-1.816c-0.552,0-1,0.447-1,1 0,0.553 0.448,1 1,1zm25-23h-42c-0.552,0-1,0.447-1,1v42c0,0.553 0.448,1 1,1h42c0.552,0 1-0.447 1-1v-42c0-0.553-0.448-1-1-1zm-1,42h-40v-40h40v40z"/>
      </g>
    </g>
    <g>
      <g>
        <path fill-rule="evenodd" d="m38,12v-2h-6c-0.552,0-1,0.447-1,1v6c0,0.553 0.448,1 1,1h6v-2h-5v-4h5zm-7,15v6c0,0.553 0.448,1 1,1h6v-2h-5v-4h5v-2h-6c-0.552,0-1,0.447-1,1z"/>
      </g>
    </g>
  </g>
</symbol>
<symbol id="checkbox_ico" viewBox="0 0 512 512">
  <g id="icomoon-ignore" />
     <path d="M 224,397.255 98.301932,263.07065 c -19.46586,-33.27271 12.131488,-64.88408 45.254998,-45.254 L 224,306.745 392.21615,131.372 c 35.72285,-21.5924 63.47333,10.79111 45.254,45.255 z" />
     <g id="g3068" transform="translate(0.00225069,-0.001265)">
     <g id="icomoon-ignore-5" />
       <path id="path7-3"
         d="M 448,0 64,0 -0.00476138,0.01189139 0,64 0,448 0.00526373,512.00253 64,512 l 384,0 64.00026,-8.9e-4 L 512,448 512,64 511.98452,0.04070886 z m 20,468 -424,0 0,-424 424,0 z" />
       </g>
</symbol>
<symbol id = "floppy-disk"  viewBox="0 0 512 512">
  <g id="icomoon-ignore"></g>
  <path d="M448 0h-448v512h512v-448l-64-64zM256 64h64v128h-64v-128zM448 448h-384v-384h32v160h288v-160h37.489l26.511 26.509v357.491z"></path>
</symbol>
<symbol id = "folder-open" viewBox="0 0 512 512">
  <path d="M416 480l96-256h-416l-96 256zM64 192l-64 288v-416h144l64 64h208v64z"></path>
</symbol>

<symbol id="refresh"  viewBox="0 0  512 512">
	<g>
		<path d="M433.109,23.694c-3.614-3.612-7.898-5.424-12.848-5.424c-4.948,0-9.226,1.812-12.847,5.424l-37.113,36.835
			c-20.365-19.226-43.684-34.123-69.948-44.684C274.091,5.283,247.056,0.003,219.266,0.003c-52.344,0-98.022,15.843-137.042,47.536
			C43.203,79.228,17.509,120.574,5.137,171.587v1.997c0,2.474,0.903,4.617,2.712,6.423c1.809,1.809,3.949,2.712,6.423,2.712h56.814
			c4.189,0,7.042-2.19,8.566-6.565c7.993-19.032,13.035-30.166,15.131-33.403c13.322-21.698,31.023-38.734,53.103-51.106
			c22.082-12.371,45.873-18.559,71.376-18.559c38.261,0,71.473,13.039,99.645,39.115l-39.406,39.397
			c-3.607,3.617-5.421,7.902-5.421,12.851c0,4.948,1.813,9.231,5.421,12.847c3.621,3.617,7.905,5.424,12.854,5.424h127.906
			c4.949,0,9.233-1.807,12.848-5.424c3.613-3.616,5.42-7.898,5.42-12.847V36.542C438.529,31.593,436.733,27.312,433.109,23.694z"/>
		<path d="M422.253,255.813h-54.816c-4.188,0-7.043,2.187-8.562,6.566c-7.99,19.034-13.038,30.163-15.129,33.4
			c-13.326,21.693-31.028,38.735-53.102,51.106c-22.083,12.375-45.874,18.556-71.378,18.556c-18.461,0-36.259-3.423-53.387-10.273
			c-17.13-6.858-32.454-16.567-45.966-29.13l39.115-39.112c3.615-3.613,5.424-7.901,5.424-12.847c0-4.948-1.809-9.236-5.424-12.847
			c-3.617-3.62-7.898-5.431-12.847-5.431H18.274c-4.952,0-9.235,1.811-12.851,5.431C1.807,264.844,0,269.132,0,274.08v127.907
			c0,4.945,1.807,9.232,5.424,12.847c3.619,3.61,7.902,5.428,12.851,5.428c4.948,0,9.229-1.817,12.847-5.428l36.829-36.833
			c20.367,19.41,43.542,34.355,69.523,44.823c25.981,10.472,52.866,15.701,80.653,15.701c52.155,0,97.643-15.845,136.471-47.534
			c38.828-31.688,64.333-73.042,76.52-124.05c0.191-0.38,0.281-1.047,0.281-1.995c0-2.478-0.907-4.612-2.715-6.427
			C426.874,256.72,424.731,255.813,422.253,255.813z"/>
	</g>

</symbol>

<symbol id="recycler" viewBox="0 0 512 512">
<path d="M64 160v320c0 17.6 14.4 32 32 32h288c17.6 0 32-14.4 32-32v-320h-352zM160 448h-32v-224h32v224zM224 448h-32v-224h32v224zM288 448h-32v-224h32v224zM352 448h-32v-224h32v224z"></path>
<path d="M424 64h-104v-40c0-13.2-10.8-24-24-24h-112c-13.2 0-24 10.8-24 24v40h-104c-13.2 0-24 10.8-24 24v40h416v-40c0-13.2-10.8-24-24-24zM288 64h-96v-31.599h96v31.599z"></path>
</symbol>















</svg>
